<?xml version="1.0" encoding="UTF-8"?>
<svg xmlns="http://www.w3.org/2000/svg" width="1024" height="1024" viewBox="0 0 1024 1024">
  <defs>
    <linearGradient id="bg" x1="0%" y1="0%" x2="100%" y2="100%">
      <stop offset="0%" stop-color="#0f131a" />
      <stop offset="100%" stop-color="#161b24" />
    </linearGradient>
    <linearGradient id="glow" x1="0%" y1="0%" x2="0%" y2="100%">
      <stop offset="0%" stop-color="white" stop-opacity="0.08" />
      <stop offset="100%" stop-color="black" stop-opacity="0.15" />
    </linearGradient>
    <filter id="shadow" x="-10%" y="-10%" width="130%" height="130%">
      <feDropShadow dx="0" dy="20.48" stdDeviation="30.72" flood-color="#5a9fa8" flood-opacity="0.4" />
    </filter>
  </defs>
  <!-- Background -->
  <rect x="0" y="0" width="1024" height="1024" rx="225.28" fill="url(#bg)" />
  <!-- N letter with shadow -->
  <g filter="url(#shadow)">
    <rect x="175.10400000000004" y="210.94400000000002" width="129.024" height="602.112" rx="19.3536" fill="#89dceb" />
    <rect x="719.8720000000001" y="210.94400000000002" width="129.024" height="602.112" rx="19.3536" fill="#89dceb" />
    <rect x="271.87199999999996" y="616.4480000000001" width="179.2" height="196.60800000000006" rx="12.9024" fill="#89dceb" transform="rotate(-53.40891173260074 361.472 714.7520000000001)" />
    <rect x="322.048" y="548.8640000000001" width="179.20000000000005" height="196.60799999999995" rx="12.9024" fill="#89dceb" transform="rotate(-53.40891173260067 411.648 647.1680000000001)" />
    <rect x="372.22400000000005" y="481.2800000000001" width="179.2" height="196.60799999999995" rx="12.9024" fill="#89dceb" transform="rotate(-53.40891173260071 461.82400000000007 579.5840000000001)" />
    <rect x="422.4" y="413.6960000000001" width="179.20000000000005" height="196.60800000000006" rx="12.9024" fill="#89dceb" transform="rotate(-53.408911732600714 512 512.0000000000001)" />
    <rect x="472.57600000000014" y="346.112" width="179.20000000000005" height="196.60800000000006" rx="12.9024" fill="#89dceb" transform="rotate(-53.408911732600714 562.1760000000002 444.41600000000005)" />
    <rect x="522.7520000000002" y="278.5280000000001" width="179.19999999999993" height="196.60799999999995" rx="12.9024" fill="#89dceb" transform="rotate(-53.408911732600735 612.3520000000001 376.83200000000005)" />
    <rect x="572.928" y="210.94400000000002" width="179.20000000000005" height="196.60800000000006" rx="12.9024" fill="#89dceb" transform="rotate(-53.408911732600714 662.528 309.24800000000005)" />
  </g>
  <rect x="0" y="0" width="1024" height="1024" rx="225.28" fill="url(#glow)" style="mix-blend-mode: overlay;" />
</svg>