<?xml version="1.0" encoding="UTF-8"?>
<svg xmlns="http://www.w3.org/2000/svg" width="1024" height="1024" viewBox="0 0 1024 1024">
  <!-- Solid dark background -->
  <rect x="0" y="0" width="1024" height="1024" rx="225.28" fill="#0f131a" />
  <!-- Blocky N -->
  <rect x="141.9946666666667" y="73.72799999999998" width="57.344" height="57.344" rx="6.826666666666667" fill="#89dceb" />
  <rect x="210.26133333333334" y="73.72799999999998" width="57.344" height="57.344" rx="6.826666666666667" fill="#89dceb" />
  <rect x="141.9946666666667" y="141.99466666666663" width="57.344" height="57.344" rx="6.826666666666667" fill="#89dceb" />
  <rect x="210.26133333333334" y="141.99466666666663" width="57.344" height="57.344" rx="6.826666666666667" fill="#89dceb" />
  <rect x="141.9946666666667" y="210.2613333333333" width="57.344" height="57.344" rx="6.826666666666667" fill="#89dceb" />
  <rect x="210.26133333333334" y="210.2613333333333" width="57.344" height="57.344" rx="6.826666666666667" fill="#89dceb" />
  <rect x="141.9946666666667" y="278.528" width="57.344" height="57.344" rx="6.826666666666667" fill="#89dceb" />
  <rect x="210.26133333333334" y="278.528" width="57.344" height="57.344" rx="6.826666666666667" fill="#89dceb" />
  <rect x="141.9946666666667" y="346.79466666666667" width="57.344" height="57.344" rx="6.826666666666667" fill="#89dceb" />
  <rect x="210.26133333333334" y="346.79466666666667" width="57.344" height="57.344" rx="6.826666666666667" fill="#89dceb" />
  <rect x="141.9946666666667" y="415.0613333333333" width="57.344" height="57.344" rx="6.826666666666667" fill="#89dceb" />
  <rect x="210.26133333333334" y="415.0613333333333" width="57.344" height="57.344" rx="6.826666666666667" fill="#89dceb" />
  <rect x="141.9946666666667" y="483.32800000000003" width="57.344" height="57.344" rx="6.826666666666667" fill="#89dceb" />
  <rect x="210.26133333333334" y="483.32800000000003" width="57.344" height="57.344" rx="6.826666666666667" fill="#89dceb" />
  <rect x="141.9946666666667" y="551.5946666666666" width="57.344" height="57.344" rx="6.826666666666667" fill="#89dceb" />
  <rect x="210.26133333333334" y="551.5946666666666" width="57.344" height="57.344" rx="6.826666666666667" fill="#89dceb" />
  <rect x="141.9946666666667" y="619.8613333333333" width="57.344" height="57.344" rx="6.826666666666667" fill="#89dceb" />
  <rect x="210.26133333333334" y="619.8613333333333" width="57.344" height="57.344" rx="6.826666666666667" fill="#89dceb" />
  <rect x="141.9946666666667" y="688.1279999999999" width="57.344" height="57.344" rx="6.826666666666667" fill="#89dceb" />
  <rect x="210.26133333333334" y="688.1279999999999" width="57.344" height="57.344" rx="6.826666666666667" fill="#89dceb" />
  <rect x="141.9946666666667" y="756.3946666666666" width="57.344" height="57.344" rx="6.826666666666667" fill="#89dceb" />
  <rect x="210.26133333333334" y="756.3946666666666" width="57.344" height="57.344" rx="6.826666666666667" fill="#89dceb" />
  <rect x="141.9946666666667" y="824.6613333333332" width="57.344" height="57.344" rx="6.826666666666667" fill="#89dceb" />
  <rect x="210.26133333333334" y="824.6613333333332" width="57.344" height="57.344" rx="6.826666666666667" fill="#89dceb" />
  <rect x="141.9946666666667" y="892.928" width="57.344" height="57.344" rx="6.826666666666667" fill="#89dceb" />
  <rect x="210.26133333333334" y="892.928" width="57.344" height="57.344" rx="6.826666666666667" fill="#89dceb" />
  <rect x="756.3946666666667" y="73.72799999999998" width="57.344" height="57.344" rx="6.826666666666667" fill="#89dceb" />
  <rect x="824.6613333333333" y="73.72799999999998" width="57.344" height="57.344" rx="6.826666666666667" fill="#89dceb" />
  <rect x="756.3946666666667" y="141.99466666666663" width="57.344" height="57.344" rx="6.826666666666667" fill="#89dceb" />
  <rect x="824.6613333333333" y="141.99466666666663" width="57.344" height="57.344" rx="6.826666666666667" fill="#89dceb" />
  <rect x="756.3946666666667" y="210.2613333333333" width="57.344" height="57.344" rx="6.826666666666667" fill="#89dceb" />
  <rect x="824.6613333333333" y="210.2613333333333" width="57.344" height="57.344" rx="6.826666666666667" fill="#89dceb" />
  <rect x="756.3946666666667" y="278.528" width="57.344" height="57.344" rx="6.826666666666667" fill="#89dceb" />
  <rect x="824.6613333333333" y="278.528" width="57.344" height="57.344" rx="6.826666666666667" fill="#89dceb" />
  <rect x="756.3946666666667" y="346.79466666666667" width="57.344" height="57.344" rx="6.826666666666667" fill="#89dceb" />
  <rect x="824.6613333333333" y="346.79466666666667" width="57.344" height="57.344" rx="6.826666666666667" fill="#89dceb" />
  <rect x="756.3946666666667" y="415.0613333333333" width="57.344" height="57.344" rx="6.826666666666667" fill="#89dceb" />
  <rect x="824.6613333333333" y="415.0613333333333" width="57.344" height="57.344" rx="6.826666666666667" fill="#89dceb" />
  <rect x="756.3946666666667" y="483.32800000000003" width="57.344" height="57.344" rx="6.826666666666667" fill="#89dceb" />
  <rect x="824.6613333333333" y="483.32800000000003" width="57.344" height="57.344" rx="6.826666666666667" fill="#89dceb" />
  <rect x="756.3946666666667" y="551.5946666666666" width="57.344" height="57.344" rx="6.826666666666667" fill="#89dceb" />
  <rect x="824.6613333333333" y="551.5946666666666" width="57.344" height="57.344" rx="6.826666666666667" fill="#89dceb" />
  <rect x="756.3946666666667" y="619.8613333333333" width="57.344" height="57.344" rx="6.826666666666667" fill="#89dceb" />
  <rect x="824.6613333333333" y="619.8613333333333" width="57.344" height="57.344" rx="6.826666666666667" fill="#89dceb" />
  <rect x="756.3946666666667" y="688.1279999999999" width="57.344" height="57.344" rx="6.826666666666667" fill="#89dceb" />
  <rect x="824.6613333333333" y="688.1279999999999" width="57.344" height="57.344" rx="6.826666666666667" fill="#89dceb" />
  <rect x="756.3946666666667" y="756.3946666666666" width="57.344" height="57.344" rx="6.826666666666667" fill="#89dceb" />
  <rect x="824.6613333333333" y="756.3946666666666" width="57.344" height="57.344" rx="6.826666666666667" fill="#89dceb" />
  <rect x="756.3946666666667" y="824.6613333333332" width="57.344" height="57.344" rx="6.826666666666667" fill="#89dceb" />
  <rect x="824.6613333333333" y="824.6613333333332" width="57.344" height="57.344" rx="6.826666666666667" fill="#89dceb" />
  <rect x="756.3946666666667" y="892.928" width="57.344" height="57.344" rx="6.826666666666667" fill="#89dceb" />
  <rect x="824.6613333333333" y="892.928" width="57.344" height="57.344" rx="6.826666666666667" fill="#89dceb" />
  <rect x="278.5280000000001" y="210.2613333333333" width="57.344" height="57.344" rx="6.826666666666667" fill="#89dceb" />
  <rect x="346.7946666666667" y="210.2613333333333" width="57.344" height="57.344" rx="6.826666666666667" fill="#89dceb" />
  <rect x="346.7946666666667" y="278.528" width="57.344" height="57.344" rx="6.826666666666667" fill="#89dceb" />
  <rect x="415.0613333333334" y="278.528" width="57.344" height="57.344" rx="6.826666666666667" fill="#89dceb" />
  <rect x="415.0613333333334" y="346.79466666666667" width="57.344" height="57.344" rx="6.826666666666667" fill="#89dceb" />
  <rect x="483.32800000000003" y="346.79466666666667" width="57.344" height="57.344" rx="6.826666666666667" fill="#89dceb" />
  <rect x="483.32800000000003" y="415.0613333333333" width="57.344" height="57.344" rx="6.826666666666667" fill="#89dceb" />
  <rect x="551.5946666666667" y="415.0613333333333" width="57.344" height="57.344" rx="6.826666666666667" fill="#89dceb" />
  <rect x="551.5946666666667" y="483.32800000000003" width="57.344" height="57.344" rx="6.826666666666667" fill="#89dceb" />
  <rect x="619.8613333333334" y="483.32800000000003" width="57.344" height="57.344" rx="6.826666666666667" fill="#89dceb" />
  <rect x="619.8613333333334" y="551.5946666666666" width="57.344" height="57.344" rx="6.826666666666667" fill="#89dceb" />
  <rect x="688.128" y="551.5946666666666" width="57.344" height="57.344" rx="6.826666666666667" fill="#89dceb" />
  <rect x="688.128" y="619.8613333333333" width="57.344" height="57.344" rx="6.826666666666667" fill="#89dceb" />
  <rect x="756.3946666666667" y="619.8613333333333" width="57.344" height="57.344" rx="6.826666666666667" fill="#89dceb" />
  <rect x="756.3946666666667" y="688.1279999999999" width="57.344" height="57.344" rx="6.826666666666667" fill="#89dceb" />
  <rect x="824.6613333333333" y="688.1279999999999" width="57.344" height="57.344" rx="6.826666666666667" fill="#89dceb" />
</svg>